<svg xmlns="http://www.w3.org/2000/svg" width="256" height="256"><path fill="#1976D2" fill-opacity=".016" fill-rule="evenodd" d="M0 128.004v128.004l128.25-.254 128.25-.254.254-127.75L257.008 0H0zm.485.496c0 70.4.119 99.053.265 63.672s.146-92.98 0-128S.485 58.1.485 128.5"/><path fill="#1976D2" fill-opacity=".414" fill-rule="evenodd" d="M106.5 1.588C68.937 8.199 36.293 30.966 16.993 64.012c-5.52 9.451-10.629 22.38-13.719 34.714C.867 108.335.571 111.393.538 127c-.029 13.098.407 19.56 1.731 25.692 5.662 26.226 16.635 46.376 35.636 65.437 18.499 18.557 37.582 29.032 63.616 34.919 14.142 3.199 37.6 3.25 52.213.116 26.002-5.578 45.668-16.283 64.361-35.035 11.278-11.314 18.159-20.703 24.651-33.637 5.058-10.077 9.998-25.428 11.373-35.346.583-4.205 1.47-8.427 1.971-9.382 1.16-2.214 1.202-26.063.045-25.347-.476.294-1.166-2.028-1.535-5.159-5.432-46.221-41.869-88.996-88.219-103.566C148.689.131 124.279-1.542 106.5 1.588m39.71 7.026c.282 1.037 13.899 39.461 30.258 85.386s32.158 90.379 35.108 98.786c2.951 8.407 5.75 15.974 6.221 16.815.69 1.234 1.533.697 4.37-2.786 6.499-7.979 11.802-16.492 16.78-26.936 28.317-59.404 3.332-131.462-55.947-161.35-9.251-4.664-24.627-9.919-32.402-11.074-4.494-.667-4.86-.57-4.388 1.159m-60.882 4.372C70.164 18.379 50.494 31.372 39.177 43.47 3.746 81.346-4.587 135.499 17.936 181.5c3.231 6.6 8.579 15.6 11.884 20 6.032 8.031 14.767 17.255 15.565 16.438.235-.241 6.895-11.913 14.799-25.938 36.077-64.012 41.28-72.919 41.908-71.74.363.682 5.701 15.039 11.863 31.904l11.202 30.665-17.18 30.683c-9.45 16.876-16.797 31.039-16.329 31.473 3.261 3.021 29.339 6.478 42.508 5.635 16.807-1.075 39.456-6.667 39.243-9.688-.16-2.282-81.705-229.94-82.333-229.859-.311.04-2.893.901-5.738 1.913M.389 127.5c.001 7.15.161 9.944.353 6.208.193-3.735.192-9.585-.003-13-.194-3.414-.352-.358-.35 6.792"/><path fill="#1976D2" fill-opacity=".143" fill-rule="evenodd" d="M111.635 1.065C78.261 5.69 49.061 22.328 27.878 48.788 7.896 73.748-2.217 107.632.991 138.872c.657 6.395 1.667 12.201 2.244 12.902s.765 1.56.416 1.908c-.348.349-.262 1.125.193 1.726.454.601 1.632 4.156 2.618 7.9 1.293 4.913 2.174 6.662 3.165 6.282.755-.29 1.373-.016 1.373.608s.207.929.46.676c.252-.253-.432-3.324-1.522-6.824-6.751-21.692-6.522-49.204.606-72.733C21.06 56.607 50.715 25.32 84.798 12.978c3.646-1.321 6.632-1.901 7.089-1.38.435.496 6.317 16.427 13.072 35.402 22.062 61.977 50.117 139.41 50.709 139.961.539.5-.237-2.588-1.475-5.875-.357-.948-.116-1.156.732-.632.696.43 2.235.304 3.42-.281s10.705-4.083 21.155-7.773c10.45-3.691 19.331-7.203 19.735-7.805.483-.72.74-.61.75.322.008.779.268 1.163.577.854.445-.445-35.82-104.461-52.184-149.675-1.872-5.172-3.269-9.538-3.105-9.702.69-.69 15.566 2.958 23.568 5.781 42.331 14.93 72.893 51.398 80.626 96.206 2.911 16.865 1.504 39.549-3.448 55.619-1.102 3.575-2.007 6.57-2.011 6.656s.854-.069 1.906-.344c1.389-.363 2.396-2.329 3.666-7.156.963-3.661 2.122-7.147 2.576-7.748s.541-1.377.193-1.726c-.349-.348-.138-1.232.469-1.962.606-.731 1.411-5.031 1.789-9.556s1.07-8.464 1.539-8.754c.47-.291.847-3.539.839-7.219-.009-3.948-.357-6.153-.847-5.379-.505.795-1.074-1.822-1.446-6.654-.721-9.34-1.815-14.366-5.843-26.835-13.863-42.907-50.818-75.444-96.349-84.829-9.624-1.984-31.374-2.745-40.865-1.429M.328 127.5c.005 3.85.185 5.302.402 3.228.216-2.075.213-5.225-.008-7s-.398-.078-.394 3.772m60.621 64.155c-11.521 20.259-14.967 27.103-14.242 28.285 1.444 2.353 15.904 12.554 23.478 16.562 3.677 1.946 9.628 4.646 13.224 6l6.54 2.462 1.184-2.232c.652-1.228 6.558-11.907 13.126-23.732 15.24-27.442 18.167-32.924 16.38-30.69-.796.995-1.685 1.425-1.976.954-.29-.47-3.371-2.331-6.846-4.135s-8.117-4.34-10.317-5.636-5.35-3.045-7-3.888c-3.027-1.547-9.326-5.175-15.176-8.74l-3.176-1.936zM12.031 172.5c0 .55.436 1.675.969 2.5s.969 1.05.969.5-.436-1.675-.969-2.5-.969-1.05-.969-.5m230.593 1.039c-.965 2.514-.681 3.163.498 1.136.584-1.004.851-2.036.593-2.293-.257-.258-.749.263-1.091 1.157"/><path fill="#1976D2" fill-opacity=".198" fill-rule="evenodd" d="M114 1.109c-41.402 4.69-78.71 29.862-97.876 66.037-2.218 4.187-3.753 7.891-3.412 8.233.342.341.171.621-.379.621s-1.035.563-1.079 1.25c-.043.688-.537 2.712-1.097 4.5-.627 2.003-.653 3.25-.068 3.25.522 0 .683 1.238.358 2.75s.913-.859 2.751-5.27c13.645-32.744 39.361-57.616 72.45-70.072l6.148-2.314 1.072 2.703c.589 1.487 8.099 22.278 16.688 46.203 14.634 40.761 17.657 48.681 15.879 41.599-.505-2.012-.389-2.689.378-2.214.608.375 1.911.273 2.896-.228s3.591-1.446 5.791-2.1 4.9-1.609 6-2.123 8.065-2.986 15.479-5.495 13.749-4.999 14.081-5.535 1.159.885 1.84 3.158 1.431 3.94 1.666 3.705c.801-.801-2.75-9.771-3.649-9.216-.492.304-.654-.073-.36-.839.294-.765-5.139-17.486-12.073-37.157-6.933-19.672-12.378-35.994-12.099-36.273.773-.773 15.239 2.641 23.115 5.455 33.859 12.095 60.388 37.355 74.302 70.743 1.838 4.411 3.076 6.783 2.751 5.27-.327-1.523-.156-2.75.384-2.75.564 0 .393-1.648-.405-3.91-.759-2.15-1.114-4.175-.789-4.5.325-.324.065-.59-.576-.59-.642 0-1.093-.338-1.003-.75.353-1.621-4.578-11.149-9.957-19.239-6.96-10.469-22.08-25.762-32.496-32.87C174.811 5.468 144.193-2.311 114 1.109M50.084 211.467l-4.272 7.467 2.844 2.55c8.195 7.347 30.256 19.975 38.465 22.016 2.225.554 2.922.149 4.604-2.674 4.678-7.847 8.315-15.172 6.616-13.32-1.013 1.103-1.74 1.828-1.617 1.61s-1.227-1.177-3-2.13A223 223 0 0 1 87 223.174c-1.925-1.143-5.975-3.389-9-4.993-3.025-1.603-7.3-3.95-9.5-5.215a2640 2640 0 0 0-8.228-4.706c-2.325-1.323-4.682-2.125-5.238-1.781-.592.366-.764-.018-.416-.927 1.364-3.554-.529-1.084-4.534 5.915"/></svg>