<svg xmlns="http://www.w3.org/2000/svg" width="256" height="256"><path fill="#1976D2" fill-opacity=".016" fill-rule="evenodd" d="M0 128.004v128.004l128.25-.254 128.25-.254.254-127.75L257.008 0H0zm.485.496c0 70.4.119 99.053.265 63.672s.146-92.98 0-128S.485 58.1.485 128.5"/><path fill="#1976D2" fill-opacity=".04" fill-rule="evenodd" d="M104.597 1.607C86.636 4.85 66.229 13.895 50.994 25.364 25.665 44.432 8.347 71.856 2.016 102.923c-2.803 13.753-2.803 36.401 0 50.154 10.354 50.811 50.096 90.553 100.907 100.907 12.386 2.525 34.647 2.743 47.692.468 32.259-5.625 63.137-25.343 82.386-52.608 9.978-14.134 18.386-33.797 21.1-49.344.672-3.85 1.599-7.428 2.06-7.95 1.121-1.269 1.086-34.821-.035-34.128-.48.297-1.171-1.707-1.536-4.454-1.883-14.196-10.702-35.814-20.583-50.457-18.098-26.821-48.435-46.873-80.93-53.495-11.95-2.435-36.131-2.639-48.48-.409m42.75 9.573c1.849 5.126 8.445 23.592 14.658 41.036 6.645 18.654 11.711 31.46 12.301 31.095.575-.355.692-.117.274.559-.679 1.099 8.285 28.599 9.068 27.816.196-.197-.545-2.981-1.648-6.186s-1.79-6.044-1.526-6.307c.263-.264.749.225 1.079 1.085.487 1.267 1.156 1.371 3.524.545 1.613-.562 2.937-1.759 2.953-2.671.027-1.471.143-1.459 1.055.106.563.967.773 2.162.468 2.657-.306.494.446.637 1.67.316 1.224-.32 1.675-.765 1.001-.99-.673-.224-1.224-.824-1.224-1.333s.871-.381 1.935.284c1.065.664 1.685 1.613 1.38 2.108s.407.384 1.585-.246c1.178-.631 2.582-.874 3.121-.541.538.333.986.016.994-.704.011-.951.281-.899.985.191.761 1.178.973 1.206.985.128.011-.971.381-1.077 1.265-.36.688.557 2.375.923 3.75.814s3.149.278 3.942.86c1.059.777 1.254.744.734-.123-.39-.649-.251-1.463.308-1.809s1.016-.151 1.016.431.675 1.059 1.5 1.059 1.507-.787 1.515-1.75c.013-1.452.172-1.502.934-.298.506.799.69 1.924.411 2.5-.28.577.088.328.816-.551 1.613-1.949 2.87-2.098 4.766-.566 1.048.846 1.254.852.756.02-.378-.63.009-1.412.86-1.739.936-.359 1.289-.178.896.459-.437.706.533.831 2.948.377 3.071-.576 3.608-.402 3.668 1.187.067 1.759.112 1.755.828-.073.52-1.329.986-1.563 1.489-.75.402.651 1.181 1.184 1.731 1.184s.722-.45.382-1-.141-1 .441-1 1.059.466 1.059 1.035c0 .714.601.714 1.934 0 2.559-1.369 3.384-1.306 2.8.215-.321.838.55 1.243 2.643 1.227 3.031-.022 3.117-.146 2.934-4.25-.104-2.325-.023-4.227.181-4.227.668 0 3.535 14.331 4.401 22 .578 5.117.889 6.191.977 3.381.306-9.707-6.731-38.203-9.077-36.753-.692.427-.816.219-.335-.56.916-1.481-2.364-9.244-3.586-8.489-.467.289-.624-.062-.349-.778.722-1.881-7.274-14.952-15.035-24.579-6.979-8.657-19.128-19.515-28.488-25.461-13.158-8.359-33.058-16.419-45-18.226-2.475-.375-5.291-.905-6.257-1.178-1.513-.427-1.289.802 1.604 8.823M84.375 9.034c-19.42 6.667-41.197 22.225-54.416 38.875-7.545 9.503-16.213 23.988-15.487 25.88.278.723.112 1.072-.367.776-1.212-.749-3.469 5.037-2.547 6.529.466.754.333.956-.351.534-2.346-1.45-9.383 27.046-9.077 36.753.088 2.81.399 1.736.977-3.381.965-8.549 3.842-22.385 4.514-21.713.247.247.011 2.421-.524 4.831-.869 3.918-.82 4.177.466 2.441.79-1.068 1.437-1.405 1.437-.75 0 1.374 2.149 1.168 3.235-.309.458-.623.74-.538.75.225.011.908.693.968 2.629.232 2.064-.785 2.506-.711 2.098.35-.446 1.164 2.075 1.551 4.288.658.275-.111.902-.127 1.394-.036.491.092 2.153-.11 3.693-.448 1.888-.415 2.62-1.081 2.249-2.048-.303-.788-.025-1.433.616-1.433s.919.399.618.887c-.301.487.07 1.399.824 2.025 1.063.882 1.524.745 2.043-.608.558-1.455.818-1.509 1.551-.324.484.784.644 1.807.355 2.274-.288.467 1.091.174 3.066-.652 1.975-.825 3.591-1.073 3.591-.551s.477.949 1.059.949.753-.495.379-1.1c-.488-.79-.126-.804 1.288-.047 1.411.755 2.294.727 3.121-.1.871-.871 1.153-.818 1.153.214 0 .751.284 1.082.631.735s1.396-.223 2.331.278c1.117.598 2.612.435 4.368-.476 2.514-1.304 3.102-1.13 2.764.82-.079.454.325.535.898.181.572-.354.806-1.023.52-1.486-.604-.976 1.443-.804 3.153.265.64.401 1.392.163 1.671-.528.386-.957.525-.965.585-.031.057.884.761.966 2.531.293 2.076-.789 2.37-.67 1.918.775-.437 1.399-.248 1.357 1.048-.234 1.434-1.76 1.582-1.777 1.582-.191 0 .962.457 1.467 1.016 1.122.559-.346.698-1.16.308-1.809-.46-.768-.152-.731.882.107 1.491 1.207 5.576 1.083 7.708-.235.521-.322 1.23-.128 1.576.431.345.559 1.078 1.016 1.628 1.016s.768-.375.485-.833c-.283-.459.16-.834.984-.834s1.289.548 1.032 1.218c-.359.934.199.966 2.395.138 1.574-.594 2.632-1.555 2.35-2.135s.084-.333.813.547 2.45 1.515 3.824 1.409c1.995-.154 2.452-.679 2.265-2.602-.21-2.174-.15-2.214.625-.408.472 1.1.656 2.35.408 2.778s.921.536 2.597.24c2.149-.378 2.957-.165 2.74.723-.169.692-.119.921.111.509.231-.413 1.057-.75 1.836-.75s1.424-.787 1.432-1.75c.012-1.368.204-1.453.879-.388.474.749 2.259 1.481 3.967 1.626 1.707.145 2.89-.082 2.628-.506-.262-.423.647-.705 2.018-.626 2.136.123 2.797 1.052 4.597 6.458 1.156 3.473 2.283 6.132 2.505 5.91.767-.767-8.872-26.68-9.727-26.151-.473.292-.622-.087-.332-.842.445-1.161-24.317-72.833-26.355-76.281-.517-.875-2.005-.726-5.82.584M176.031 88.5c0 .55.436 1.675.969 2.5s.969 1.05.969.5-.436-1.675-.969-2.5-.969-1.05-.969-.5m-56.89 5.5c0 .825.386 2.4.859 3.5.542 1.261.859 1.445.859.5 0-.825-.386-2.4-.859-3.5-.542-1.261-.859-1.445-.859-.5m86.975 3.191c-.152 2.217 1.119 2.932 2.932 1.649 1.2-.85 1.159-.935-.235-.49-1.056.338-1.855-.095-2.134-1.155-.419-1.588-.454-1.588-.563-.004M81 98c-.901.582-1.025.975-.309.985.655.008 1.469-.435 1.809-.985.767-1.242.421-1.242-1.5 0m158.5 0c-.782 1.266.542 1.266 2.5 0 1.293-.835 1.266-.971-.191-.985-.93-.008-1.969.435-2.309.985m4.5 1.393c0 .216.698.661 1.552.989.89.341 1.291.173.941-.393-.587-.951-2.493-1.406-2.493-.596M.345 128c0 12.566.163 15.033.577 8.75.318-4.812.318-12.687 0-17.5-.414-6.283-.577-3.816-.577 8.75m127.289-13c.337 1.375 1.228 3.85 1.979 5.5 1.097 2.409 1.246 2.508.753.5-.337-1.375-1.228-3.85-1.979-5.5-1.097-2.409-1.246-2.508-.753-.5m57.939 3c.368 1.375 1.086 3.175 1.596 4 .644 1.042.723.737.258-1-.368-1.375-1.086-3.175-1.596-4-.644-1.042-.723-.737-.258 1M98 122c-.589 1.1-.845 2-.57 2s.981-.9 1.57-2 .845-2 .57-2-.981.9-1.57 2m8.031 6.5c0 .55.436 1.675.969 2.5s.969 1.05.969.5-.436-1.675-.969-2.5-.969-1.05-.969-.5M93 131c-.589 1.1-.845 2-.57 2s.981-.9 1.57-2 .845-2 .57-2-.981.9-1.57 2m40.031-.5c0 .55.436 1.675.969 2.5s.969 1.05.969.5-.436-1.675-.969-2.5-.969-1.05-.969-.5m58 3c0 .55.436 1.675.969 2.5s.969 1.05.969.5-.436-1.675-.969-2.5-.969-1.05-.969-.5M2.272 139c0 2.475.195 3.488.434 2.25.238-1.238.238-3.262 0-4.5-.239-1.238-.434-.225-.434 2.25m251.014.5c.008 2.75.202 3.756.432 2.236s.223-3.77-.014-5-.425.014-.418 2.764M89 138c-.589 1.1-.845 2-.57 2s.981-.9 1.57-2 .845-2 .57-2-.981.9-1.57 2M3.158 148c0 1.375.227 1.938.504 1.25.278-.687.278-1.812 0-2.5-.277-.687-.504-.125-.504 1.25m249 0c0 1.375.227 1.938.504 1.25.278-.687.278-1.812 0-2.5-.277-.687-.504-.125-.504 1.25M4.079 153.583c.048 1.165.285 1.402.604.605.289-.722.253-1.585-.079-1.917s-.568.258-.525 1.312m247 0c.048 1.165.285 1.402.604.605.289-.722.253-1.585-.079-1.917s-.568.258-.525 1.312"/><path fill="#1976D2" fill-opacity=".224" fill-rule="evenodd" d="M114 .526c-.825.162-4.875.837-9 1.5C59.988 9.265 19.811 44.702 5.692 89.619c-7.554 24.035-7.554 52.727 0 76.762 14.32 45.556 54.502 80.48 101.335 88.075 18.861 3.058 41.422 1.512 59.145-4.055 45.205-14.2 80.664-54.499 87.9-99.901.701-4.4 1.647-8.428 2.102-8.95 1.056-1.215 1.092-28.832.036-28.18-.435.269-1.362-3.141-2.06-7.578-8.236-52.343-52.985-96.333-106.146-104.347C139.813.21 118.546-.365 114 .526m30 1.809c0 1.26 75.221 211.255 75.932 211.981.44.449 3.545-2.596 6.899-6.767 26.934-33.48 35.149-78.693 21.662-119.22-4.07-12.229-7.907-20.098-15.131-31.026-16.732-25.312-44.19-44.755-73.831-52.282C150.991 2.852 144 1.643 144 2.335m-63.5 7.95C39.425 26.972 8.539 65.74 2.811 107.801c-.777 5.701-1.533 8.579-1.966 7.482-.388-.981-.684 4.742-.659 12.717s.29 13.6.589 12.5c.3-1.104 1.133 1.973 1.86 6.871 2.606 17.546 9.749 35.98 19.769 51.015 5.915 8.876 20.423 24.713 21.175 23.114 2.645-5.624 57.462-102 58.015-102 .408 0 5.9 14.254 12.204 31.676l11.461 31.676-17.879 31.765c-9.834 17.471-18.021 32.329-18.193 33.019-.323 1.296 2.736 2.324 15.313 5.147 9.88 2.217 37.366 2.158 47.5-.102 11.548-2.576 22.156-5.915 22.574-7.106.535-1.524-83.861-237.854-85.074-238.23-.55-.17-4.6 1.153-9 2.94"/><path fill="#1976D2" fill-opacity=".406" fill-rule="evenodd" d="m117 .639-9.888 1.459c-4.064.601-9.499 1.719-12.078 2.484l-4.689 1.393 42.753 119.729c23.514 65.851 42.529 120.09 42.257 120.531-.789 1.277 9.835-3.674 17.53-8.168 7.557-4.413 19.969-13.984 24.23-18.683l2.614-2.884-37.782-106C161.166 52.2 144.015 3.825 143.832 3c-.193-.873-2.003-1.782-4.332-2.176-4.171-.705-18.174-.82-22.5-.185M43.924 31.75 41.5 34.5l2.75-2.424C46.82 29.81 47.459 29 46.674 29c-.179 0-1.416 1.238-2.75 2.75M211 31.5c1.292 1.375 2.574 2.5 2.849 2.5s-.557-1.125-1.849-2.5-2.574-2.5-2.849-2.5.557 1.125 1.849 2.5M31.405 44.25 29.5 46.5l2.25-1.905C33.864 42.805 34.455 42 33.655 42c-.19 0-1.202 1.013-2.25 2.25M223.5 44c.995 1.1 2.035 2 2.31 2s-.315-.9-1.31-2-2.035-2-2.31-2 .315.9 1.31 2m30.579 67.583c.048 1.165.285 1.402.604.605.289-.722.253-1.585-.079-1.917s-.568.258-.525 1.312M72.5 170.991c-22.006 39.295-29.301 51.541-30.25 50.774-.687-.555-1.25-.735-1.25-.399 0 1.199 15.207 12.667 22.288 16.806 9.001 5.263 31.188 14.724 25.894 11.042-1.015-.705 2.88-8.368 16.916-33.279 10.03-17.799 18.23-32.829 18.223-33.399-.009-.824-22.209-62.638-22.691-63.182-.072-.081-13.18 23.156-29.13 51.637M.349 128c0 4.675.173 6.588.383 4.25s.211-6.163 0-8.5c-.21-2.338-.383-.425-.383 4.25m255 0c0 4.675.173 6.588.383 4.25s.211-6.163 0-8.5c-.21-2.338-.383-.425-.383 4.25M1.079 144.583c.048 1.165.285 1.402.604.605.289-.722.253-1.585-.079-1.917s-.568.258-.525 1.312m253 0c.048 1.165.285 1.402.604.605.289-.722.253-1.585-.079-1.917s-.568.258-.525 1.312M26 205.378c0 .207.788.995 1.75 1.75 1.586 1.243 1.621 1.208.378-.378-1.307-1.666-2.128-2.195-2.128-1.372m201.872 1.372c-1.243 1.586-1.208 1.621.378.378 1.666-1.307 2.195-2.128 1.372-2.128-.207 0-.995.787-1.75 1.75M32 212.5c1.292 1.375 2.574 2.5 2.849 2.5s-.557-1.125-1.849-2.5-2.574-2.5-2.849-2.5.557 1.125 1.849 2.5m190.924.25-2.424 2.75 2.75-2.424c1.512-1.334 2.75-2.571 2.75-2.75 0-.785-.81-.146-3.076 2.424m-112.111 41.933c.721.289 1.584.253 1.916-.079s-.258-.568-1.312-.525c-1.165.048-1.402.285-.604.604m33 0c.721.289 1.584.253 1.916-.079s-.258-.568-1.312-.525c-1.165.048-1.402.285-.604.604m-20.063 1.049c2.337.211 6.162.211 8.5 0 2.338-.21.425-.383-4.25-.383s-6.588.173-4.25.383"/></svg>