<?xml version="1.0" encoding="utf-8"?>
<!-- Uploaded to: SVG Repo, www.svgrepo.com, Generator: SVG Repo Mixer Tools -->
<svg width="800px" height="800px" viewBox="-25.74 0 323.778 323.778" xmlns="http://www.w3.org/2000/svg"><defs><style>.a{fill:#ffffff;}.b{fill:#dba25c;}.c{fill:#ffda71;}.d{fill:#cfcfcf;}.e{fill:#f2635f;}.f{fill:#c5dbef;}.g{fill:#3f88c9;}.h{fill:#6dbf6b;}.i{fill:#211715;}</style></defs><path class="a" d="M265.123,29.778c0-11.185.049-21.9.049-26.828C249.1,2.95,14.931,2,5.532,2c0,3.949-.078,17.778-.078,27.778.4,88.183,1.305,269.892,1.305,291.005,22.951,0,237.765,1.027,258.506.994,0-20.441-.1-203.615-.142-292"/><path class="a" d="M138.446,94.2c0,1.494.01,12.538.01,14.216-1.34,0-26.384-.064-27.867-.064,0-1.754-.1-13.067-.1-14.213C111.1,94.136,137.408,94.2,138.446,94.2Z"/><path class="a" d="M108.021,175.736c0,1.494.011,12.538.011,14.216-1.34,0-26.384-.064-27.867-.064,0-1.754-.1-13.067-.1-14.213C80.675,175.675,106.984,175.736,108.021,175.736Z"/><path class="a" d="M226.056,255.049c0,1.494.01,12.538.01,14.216-1.34,0-26.384-.064-27.866-.064,0-1.754-.1-13.067-.1-14.213C198.71,254.988,225.018,255.049,226.056,255.049Z"/><path class="b" d="M157.887,180.508c-2.071.222-3.436-.69-4.82-2.247a7.421,7.421,0,0,1-1.777-5.319c.013-.123.028-.245.05-.364h-.231c-1.756.484-4.49-.957-5.569-3.026s-1.573-5.811.424-7.929a8.282,8.282,0,0,1,7.888-2.734c3.013.689,5.791,4.247,4.4,7.334,3.293-.835,7.349,2.5,7.515,6.276l.223,8Z"/><path class="c" d="M66.878,175.293c3.607-2.173,6.285-5.473,8.462-10.036,1.859-3.9,2.272-6.751,2.634-11.053a17.891,17.891,0,0,0-2.445-10.2l-.14-.247-.071-.268c-.322-1.217.441-5.107.62-5.822,1.444-.106,2.993-.129,3.05-.2.035-.044,1.343-5.134.388-5.1-1.043.036-11.649.345-11.851.519a22.584,22.584,0,0,0-.963,4.461,28.34,28.34,0,0,0,3.649.465c-.095,1.193-.235,3.172-1.085,4.211-.186.228-.566.595-.687.735-5.463,4.39-3.876,11.93-7.82,17.723-3.065,4.5-5.8,6.384-11.207,7.021a26.173,26.173,0,0,0-5.777,1.507c-1.7.655-2.854,1.5-3.034,3.311-.266,2.662,2.4,4.682,4.937,5.533,3.874,1.3,8.963.906,13,.286A22.484,22.484,0,0,0,66.878,175.293Z"/><path class="d" d="M152.275,101.1a5.619,5.619,0,0,1-3.621-4.779c0-1.277-.149-20.107-.149-22.048a10.943,10.943,0,0,1,2.322-6.149c-.346-1.263-.287-2.5.759-2.5,1.24,0,13.328-.009,15.337-.009.523,0,1.092.21,1.092,1.319v1.635l.149.126c1.345,1.145,1.987,4.629,1.987,5.7,0,1.462.032,19.969.032,21.022,0,2.851-1.176,5.432-2.732,5.432Z"/><path class="d" d="M186.275,101.1a5.619,5.619,0,0,1-3.621-4.779c0-1.277-.149-20.107-.149-22.048a10.943,10.943,0,0,1,2.322-6.149c-.346-1.263-.287-2.5.759-2.5,1.24,0,13.328-.009,15.337-.009.523,0,1.092.21,1.092,1.319v1.635l.149.126c1.345,1.145,1.987,4.629,1.987,5.7,0,1.462.032,19.969.032,21.022,0,2.851-1.176,5.432-2.732,5.432Z"/><path class="d" d="M219.275,101.1a5.619,5.619,0,0,1-3.621-4.779c0-1.277-.149-20.107-.149-22.048a10.943,10.943,0,0,1,2.322-6.149c-.346-1.263-.287-2.5.759-2.5,1.24,0,13.328-.009,15.337-.009.523,0,1.092.21,1.092,1.319v1.635l.149.126c1.345,1.145,1.987,4.629,1.987,5.7,0,1.462.032,19.969.032,21.022,0,2.851-1.176,5.432-2.732,5.432Z"/><path class="e" d="M165.191,239.593c-2.148-1.7-4.568-2.943-11-1.857a20.558,20.558,0,0,0-9.215,3.739,12.079,12.079,0,0,0-3.913,7.42,15.166,15.166,0,0,0,3.17,10.32c2.368,2.6,15.627,1.637,20.59,1.637"/><path class="b" d="M73.017,238.829c-1.7-.94-3.468-2.179-9.9-1.093a20.558,20.558,0,0,0-9.215,3.739,12.079,12.079,0,0,0-3.913,7.42,14.822,14.822,0,0,0,3.17,10.32c2.9,3.017,14.684,1.558,19.608,1.229"/><path class="c" d="M119.874,260c0-1.063-.036-12.187-.057-20.388-1-1.863-5.218-3.168-5.218-3.168a18.284,18.284,0,0,0-14.556,0c-2.438,1.042-9.277,4.334-11.833,12.334a15.732,15.732,0,0,0-.278,2.722c-.051,4.747-.074,6.856-.075,8.611Z"/><path class="f" d="M41.268,100.405a12.981,12.981,0,0,0,2.5.25h9.693a8.746,8.746,0,0,0,4.769-1.136c1.345-1.009,1.276-2.741,1.276-5.231,0-10.409-.191-18.61-.287-28.958-.009-1.035-1.179-3.252-1.507-4.219-5.828.006-13.288.107-18.334.111-.36,1.07-1.361,3.3-1.371,4.446-.1,10.19-.284,18.324-.284,28.62A10.207,10.207,0,0,0,38.488,99,4.22,4.22,0,0,0,41.268,100.405Z"/><path class="g" d="M37.941,70.18c-.077,4.8-.18,6.223-.211,11.56,6.958-.224,14.816-.082,21.766.1-.03-5.43-.132-6.934-.214-11.669Z"/><path class="f" d="M73.934,100.405a12.991,12.991,0,0,0,2.5.25h9.693A8.746,8.746,0,0,0,90.9,99.519c1.345-1.009,1.276-2.741,1.276-5.231,0-10.409-.191-18.61-.287-28.958A20.447,20.447,0,0,0,90.821,61c-5.828.006-13.843.107-18.889.111a21.009,21.009,0,0,0-1.261,4.557c-.094,10.19-.283,18.324-.283,28.62A10.222,10.222,0,0,0,71.154,99,4.22,4.22,0,0,0,73.934,100.405Z"/><path class="g" d="M70.607,70.18c-.077,4.8-.179,6.223-.21,11.56,6.958-.224,14.815-.082,21.765.1-.03-5.43-.132-6.934-.213-11.669Z"/><path class="b" d="M214.942,181.454c-1.309-.008-2.747-.017-4.332-.025-1.039-1.631-1.9-2.985-1.9-2.985a6.687,6.687,0,0,1-4.876-4.335c-1.068-4.2-.4-7.285.763-9.109.967-1.516,2.335-4.333,7.126-4.558,2.045-.1,11.61.6,13.889,3.444a2.231,2.231,0,0,1,.32.392c.105,5.455.192,12.2.256,17.26C223.863,181.517,220.614,181.488,214.942,181.454Z"/><path class="h" d="M46.376,239.007c.812-1.725,3.626-3.866,6.954-4.123a10.022,10.022,0,0,1,7.763,3.121c-1.421,2.148-3.917,4.735-7.64,4.941A7.814,7.814,0,0,1,46.376,239.007Z"/><path class="h" d="M139.8,245.235c-.4-1.863.531-5.274,3.019-7.5a10.019,10.019,0,0,1,8.062-2.236c.176,2.569-.235,6.14-3.067,8.565A7.812,7.812,0,0,1,139.8,245.235Z"/><path class="i" d="M118.941,236.458a23.015,23.015,0,0,0-15.309-2.887c-4.534.631-8.964,2.3-11.649,6.2-1.464,2.126,2,4.128,3.454,2.019,1.982-2.879,5.8-3.926,9.1-4.334a19.014,19.014,0,0,1,12.387,2.459c2.2,1.348,4.213-2.11,2.018-3.454Z"/><path class="i" d="M111.291,244.471c-.66,1.82-1.327,3.637-1.986,5.456a2.017,2.017,0,0,0,.2,1.541,2,2,0,0,0,2.736.718,2.247,2.247,0,0,0,.919-1.195q.99-2.73,1.986-5.457a2,2,0,0,0-2.938-2.258,2.238,2.238,0,0,0-.919,1.195Z"/><path class="i" d="M102,244.724l1.148,3.876a2.09,2.09,0,0,0,.919,1.195,2.044,2.044,0,0,0,1.541.2,2.022,2.022,0,0,0,1.2-.92,2.052,2.052,0,0,0,.2-1.541l-1.148-3.875a2.082,2.082,0,0,0-.919-1.195A2,2,0,0,0,102,244.724Z"/><path class="i" d="M102.7,252.225c-2.172-1.114-4.315-2.285-6.488-3.4a2,2,0,0,0-2.019,3.453c2.173,1.115,4.316,2.286,6.488,3.4a2,2,0,1,0,2.019-3.454Z"/><path class="i" d="M263.123,29.778q.014,30.4.03,60.794.018,35.494.037,70.988.017,34.638.035,69.276.013,28.411.028,56.822.006,16.188.012,32.377v1.742l2-2c-3.766.006-7.532-.008-11.3-.019q-10.081-.029-20.163-.067-13.527-.049-27.054-.1-15.775-.065-31.551-.131-17.089-.07-34.18-.145l-34.348-.146q-16.338-.07-32.675-.138l-28.553-.117q-11.27-.043-22.539-.084-7.083-.024-14.167-.04l-1.979,0,2,2c0-9.664-.055-19.329-.094-28.994q-.109-27.085-.236-54.17-.156-34.067-.317-68.133L7.776,98.673q-.147-31.256-.292-62.511l-.03-6.384c-.011-2.573-4.011-2.578-4,0q.139,30.347.284,60.693l.333,70.374q.163,34.529.323,69.056.129,28.228.249,56.457.067,16.335.114,32.669,0,.879,0,1.756a2.028,2.028,0,0,0,2,2q5.942,0,11.882.028,10.31.033,20.619.074l27.386.11,31.755.134,34.26.146,34.3.146,32.5.135q14.127.059,28.254.112,11.055.042,22.11.078,6.809.021,13.616.032h1.824a2.03,2.03,0,0,0,2-2q0-14.365-.01-28.732-.012-27.255-.026-54.512-.018-34.174-.035-68.349-.018-35.717-.037-71.434-.015-31.236-.031-62.473l0-6.5c0-2.574-4-2.578-4,0Z"/><path class="i" d="M7.265,28.778c0-8.927.259-17.852.267-26.778l-2,2c2.923,0,5.846.015,8.768.025q9.576.033,19.151.069l27.06.1,32.5.124,35.46.137,35.951.138,33.969.128q14.755.056,29.513.109,11.292.04,22.585.078,6.592.021,13.185.037l1.5,0-2-2q0,12.914.019,25.828c0,2.574,4,2.578,4,0q0-12.913-.019-25.828a2.029,2.029,0,0,0-2-2c-3.511,0-7.022-.015-10.533-.026Q244.373.893,234.105.855l-28.061-.1L172.929.628l-35.7-.136L101.426.354,67.984.225q-14.3-.054-28.6-.108Q28.732.076,18.084.039,12.327.018,6.571,0L5.532,0a2.029,2.029,0,0,0-2,2c-.008,8.926-.264,17.851-.267,26.778,0,2.574,4,2.578,4,0Z"/><path class="i" d="M248.659,30.333q0,5,0,10,0,9.227.011,18.453l.018,24.746.021,29.221q.012,15.781.023,31.564l.024,31.735q.011,15.072.022,30.145l.018,26.281q.008,10.3.013,20.608,0,6.389.007,12.777v1.69c0,2.573,4,2.578,4,0q0-5.286,0-10.571l-.012-18.9-.018-25.066-.021-29.42q-.012-15.82-.023-31.64-.012-15.844-.023-31.689-.012-14.988-.022-29.976-.011-12.994-.019-25.99-.006-10.1-.013-20.2,0-6.118-.006-12.239,0-.771,0-1.541c0-2.573-4-2.578-4,0Z"/><path class="i" d="M17.659,30.333q0,5,.005,10,0,9.227.011,18.453l.018,24.746.021,29.221q.012,15.781.023,31.564l.024,31.735q.011,15.072.022,30.145l.018,26.281q.008,10.3.013,20.608,0,6.389.007,12.777v1.69c0,2.573,4,2.578,4,0q0-5.286,0-10.571l-.012-18.9-.018-25.066-.021-29.42q-.012-15.82-.023-31.64-.012-15.844-.023-31.689Q21.708,105.286,21.7,90.3q-.011-12.994-.019-25.99-.006-10.1-.013-20.2,0-6.118-.006-12.239,0-.771,0-1.541c0-2.573-4-2.578-4,0Z"/><path class="i" d="M19.71,270.625c2.574,0,2.578-4,0-4s-2.578,4,0,4Z"/><path class="i" d="M44.376,258.588q-11.592-.018-23.185-.032c-2.574,0-2.578,4,0,4q11.594,0,23.185.032c2.574,0,2.578-4,0-4Z"/><path class="i" d="M151.932,258.767q-14.53,0-29.062-.043l-46.423-.082-21.293-.037c-2.574,0-2.578,4,0,4q20.852.034,41.7.073,21.432.037,42.865.073,6.1.01,12.209.016c2.574,0,2.578-4,0-4Z"/><path class="i" d="M198.006,258.86q-23.037-.035-46.074-.075c-2.574,0-2.578,4,0,4q23.037.041,46.074.075c2.574,0,2.578-4,0-4Z"/><path class="i" d="M249.265,258.926q-11.481,0-22.962-.026c-2.574,0-2.578,4,0,4q11.481.017,22.962.026c2.574,0,2.578-4,0-4Z"/><path class="i" d="M80.154,186.842q-26.176-.114-52.354-.2-3.544-.009-7.089-.013c-2.574,0-2.578,4,0,4,13.793,0,27.587.083,41.38.14l18.063.077c2.575.012,2.578-3.988,0-4Z"/><path class="i" d="M246.674,187.555c-11.28.018-22.56-.07-33.84-.118q-32.133-.137-64.267-.287l-40.3-.183c-2.574-.011-2.578,3.988,0,4q35.424.159,70.847.322,26.942.122,53.882.23c4.56.016,9.119.043,13.679.036,2.573,0,2.578-4,0-4Z"/><path class="i" d="M79.933,178.84q-25.521-.111-51.042-.2-3.2-.009-6.4-.013c-2.574,0-2.579,4,0,4,13.168,0,26.337.083,39.506.138l17.939.077c2.574.011,2.577-3.989,0-4Z"/><path class="i" d="M127.266,179.052q-9.111-.042-18.222-.087c-2.574-.012-2.577,3.988,0,4q9.111.04,18.222.087c2.574.012,2.578-3.988,0-4Z"/><path class="i" d="M186.71,179.335q-23.168-.1-46.334-.238c-2.574-.012-2.577,3.988,0,4q23.167.1,46.334.238c2.574.012,2.577-3.988,0-4Z"/><path class="i" d="M248.45,179.555c-10.412.016-20.825-.065-31.237-.111l-15.725-.069c-2.575-.011-2.578,3.989,0,4q20.953.091,41.908.174,2.528.006,5.054.006c2.574,0,2.579-4,0-4Z"/><path class="i" d="M248.383,107.555c-3.383,0-6.765-.008-10.148-.018q-8.892-.026-17.785-.063-11.731-.047-23.463-.1l-27.522-.122-29.645-.136-29.788-.137-28.375-.129q-12.49-.056-24.98-.109-9.834-.042-19.668-.078-6.351-.024-12.7-.038l-1.819,0c-2.574,0-2.579,4,0,4q5.348,0,10.7.026,9.108.032,18.216.07,11.886.049,23.772.1,13.859.062,27.716.126l29.718.136,29.744.137q14.1.063,28.211.126,12.348.054,24.7.105,9.635.039,19.268.073,6.091.02,12.182.029h1.675c2.573,0,2.578-4,0-4Z"/><path class="i" d="M40.932,98.675q-9.222-.034-18.444-.05c-2.574,0-2.579,4,0,4q9.222,0,18.444.05c2.574.01,2.578-3.99,0-4Z"/><path class="i" d="M110.377,98.97q-22.042-.114-44.085-.247Q60.946,98.7,55.6,98.675c-2.575-.009-2.578,3.991,0,4q20.059.076,40.118.215,7.331.042,14.66.08c2.575.013,2.578-3.987,0-4Z"/><path class="i" d="M152.451,99.176q-6.815-.03-13.629-.064a2,2,0,0,0,0,4q6.815.033,13.629.064a2,2,0,0,0,0-4Z"/><path class="i" d="M186.275,99.288q-9.246-.043-18.491-.081c-2.574-.011-2.578,3.989,0,4q9.245.044,18.491.081c2.574.013,2.577-3.987,0-4Z"/><path class="i" d="M201.6,103.207c13.628.058,27.257.024,40.886.057q4.056.009,8.114.024c2.574.013,2.577-3.987,0-4q-16.887-.078-33.773-.088c-5.076,0-10.152.029-15.227.007-2.575-.01-2.578,3.99,0,4Z"/><path class="i" d="M270.376,27.555c-3.86,0-7.721-.008-11.582-.018q-10.414-.026-20.831-.063-14.076-.046-28.151-.1l-32.907-.122L141.4,27.119l-35.845-.138-33.926-.128Q56.7,26.8,41.77,26.743q-11.64-.042-23.279-.079-7.287-.023-14.575-.037l-1.984,0c-2.574,0-2.578,4,0,4q6.084,0,12.168.026,10.643.032,21.286.07,14.243.05,28.483.1l33.112.125,35.584.136,35.8.137,33.753.126q14.778.054,29.556.105,11.427.039,22.853.073,7.011.02,14.022.029.913,0,1.829,0c2.574,0,2.579-4,0-4Z"/><path class="i" d="M270.376,267.555c-3.86,0-7.721-.008-11.582-.018q-10.414-.026-20.831-.063-14.076-.046-28.151-.1l-32.907-.122-35.506-.135-35.845-.138-33.926-.128q-14.93-.057-29.858-.11-11.64-.042-23.279-.079-7.287-.022-14.575-.037l-1.984,0c-2.574,0-2.578,4,0,4q6.084,0,12.168.026,10.643.031,21.286.07,14.243.05,28.483.1l33.112.125,35.584.136,35.8.137,33.753.126q14.778.054,29.556.1,11.427.039,22.853.073,7.011.019,14.022.029h1.829c2.574,0,2.579-4,0-4Z"/><path class="i" d="M106.093,176.268c.023.135-.03-.535-.014-.046.006.2.027.395.037.592.028.539.042,1.08.054,1.62.033,1.472.04,2.946.043,4.419.005,2.333-.018,4.667-.02,7l2-2c-8.056,0-16.113-.13-24.169-.194-1.332-.011-2.665-.027-4-.028l2,2c0-4.537.053-9.074.056-13.611l-1.468,1.928c.372-.119-.594.015-.2.021.212,0,.434-.034.646-.047.677-.04,1.355-.063,2.032-.086,2.093-.069,4.187-.109,6.28-.144,4.783-.078,9.568-.128,14.351-.09.9.007,1.8.016,2.7.042.324.009.648.017.972.037.244.014,1.025.125.1-.017a2.065,2.065,0,0,0,2.46-1.4,2.015,2.015,0,0,0-1.4-2.46c-3.406-.526-7.045-.225-10.475-.208-4.818.024-9.639.074-14.454.221a15.819,15.819,0,0,0-4.074.271,2.053,2.053,0,0,0-1.468,1.929c0,4.537-.054,9.074-.056,13.611a2.03,2.03,0,0,0,2,2c8.081.007,16.163.131,24.243.195,1.308.01,2.616.027,3.924.027a2.03,2.03,0,0,0,2-2c0-2.429.027-4.858.02-7.287a44.253,44.253,0,0,0-.263-7.363,2.015,2.015,0,0,0-2.46-1.4A2.044,2.044,0,0,0,106.093,176.268Z"/><path class="i" d="M88.117,185.011c3.089,0,3.094-4.8,0-4.8s-3.094,4.8,0,4.8Z"/><path class="i" d="M95.284,184.722c1.589,0,3.191-.053,4.778.056a2,2,0,0,0,1.414-3.414,2.206,2.206,0,0,0-1.414-.586c-1.587-.109-3.189-.056-4.778-.056a2.06,2.06,0,0,0-1.414.586,2,2,0,0,0,1.414,3.414Z"/><path class="i" d="M136.517,94.729c.024.135-.029-.535-.014-.046.007.2.027.395.038.592.028.539.041,1.08.053,1.62.033,1.472.041,2.946.044,4.419,0,2.333-.019,4.667-.021,7l2-2c-8.056,0-16.113-.13-24.168-.194-1.333-.011-2.666-.027-4-.028l2,2c0-4.834.106-9.667.112-14.5l-1.469,1.928c.241-.075-.656.014-.2.028.212.007.433-.021.645-.027.676-.02,1.352-.021,2.028-.021,2.089,0,4.178.03,6.267.066,4.774.082,9.55.2,14.321.382.9.035,1.8.072,2.691.122.324.018.647.04.971.061.109.008.218.025.327.028.41.013-.31-.047-.229-.034a2.063,2.063,0,0,0,2.46-1.4,2.016,2.016,0,0,0-1.4-2.461,83.118,83.118,0,0,0-10.457-.5c-4.806-.135-9.615-.25-14.424-.262a14.376,14.376,0,0,0-4.066.162,2.052,2.052,0,0,0-1.468,1.929c-.006,4.833-.108,9.666-.112,14.5a2.031,2.031,0,0,0,2,2c8.081.007,16.163.131,24.243.195,1.308.01,2.616.027,3.924.027a2.03,2.03,0,0,0,2-2c0-2.429.027-4.858.02-7.287a44.253,44.253,0,0,0-.263-7.363,2.017,2.017,0,0,0-2.46-1.4A2.048,2.048,0,0,0,136.517,94.729Z"/><path class="i" d="M117.932,102.956c3.089,0,3.094-4.8,0-4.8s-3.094,4.8,0,4.8Z"/><path class="i" d="M124.673,102.993c3.088,0,3.093-4.8,0-4.8s-3.094,4.8,0,4.8Z"/><path class="i" d="M131.376,103.178c3.089,0,3.094-4.8,0-4.8s-3.093,4.8,0,4.8Z"/><path class="i" d="M224.225,255.865c-.1-.579,0,.18.019.555.025.541.035,1.082.043,1.624.021,1.42.017,2.842.009,4.263-.014,2.286-.065,4.573-.069,6.86l2-2c-8.055,0-16.113-.13-24.168-.194-1.333-.011-2.666-.027-4-.029l2,2c0-4.722.087-9.444.092-14.166l-2,2c3.06-.156,6.172.032,9.232.071,4.805.063,9.61.132,14.412.272.923.027,1.846.055,2.769.1.305.014.611.028.916.049.439.032.664.075.14-.007a2.063,2.063,0,0,0,2.46-1.4,2.014,2.014,0,0,0-1.4-2.46,77.9,77.9,0,0,0-10.386-.413q-7.218-.141-14.436-.2c-1.231-.011-2.479-.073-3.71-.01a2.038,2.038,0,0,0-2,2c0,4.722-.089,9.444-.092,14.166a2.029,2.029,0,0,0,2,2c8.08.008,16.162.132,24.242.195,1.308.011,2.616.028,3.924.028a2.029,2.029,0,0,0,2-2c0-2.381.058-4.762.07-7.144a41.647,41.647,0,0,0-.215-7.221,2.017,2.017,0,0,0-2.46-1.4A2.045,2.045,0,0,0,224.225,255.865Z"/><path class="i" d="M208.488,264.4c3.088,0,3.093-4.8,0-4.8s-3.094,4.8,0,4.8Z"/><path class="i" d="M215.488,264.511c3.088,0,3.093-4.8,0-4.8s-3.094,4.8,0,4.8Z"/><path class="i" d="M41.464,98.646a3.608,3.608,0,0,1-.98-.2c.057.031-.064-.106-.145-.244a4.343,4.343,0,0,1-.511-1.645,44.276,44.276,0,0,1-.1-6.161c.02-4.378.074-8.755.133-13.133q.044-3.172.084-6.347a38.222,38.222,0,0,1,.2-6.762,12.345,12.345,0,0,1,2.475-4.8c1.044-1.463,2.1-2.923,3.035-4.457,1.346-2.2-2.112-4.214-3.454-2.019-1.644,2.691-4,5.111-5.215,8.028-1.451,3.477-1.01,7.481-1.057,11.168-.1,7.683-.458,15.423-.2,23.1.108,3.2.978,6.822,4.665,7.325a2.07,2.07,0,0,0,2.461-1.4,2.014,2.014,0,0,0-1.4-2.46Z"/><path class="i" d="M51.612,55.2c.869,1.236,1.778,2.442,2.651,3.674,1.046,1.479,2.231,2.819,2.7,4.607.553,2.088.276,4.489.3,6.637q.041,3.4.089,6.794c.061,4.5.118,9.009.137,13.513a40.239,40.239,0,0,1-.059,6.561,1.975,1.975,0,0,1-1.948,1.674c-2.572.044-2.58,4.044,0,4a6.03,6.03,0,0,0,5.928-5.513A48.374,48.374,0,0,0,61.5,91.61q-.01-3.129-.04-6.257c-.037-3.934-.095-7.869-.147-11.8q-.041-3.016-.074-6.034a17.815,17.815,0,0,0-.651-5.867c-1.1-3.12-3.633-5.785-5.522-8.473-1.468-2.091-4.938-.094-3.454,2.019Z"/><path class="i" d="M44.73,51.269a1.407,1.407,0,0,1-.325-.012c.039.036.4.1.133.015-.5-.154.249.167.018.023.437.272.343.288.232.171.345.362.285.4.2.247.244.435.185.482.134.288-.056-.214.059.609.052.349-.009-.345-.044.219-.055.309.025-.209.071-.417.086-.626.029-.387,0-.785,0-1.173q0-2.271.009-4.542c0-.082,0-.164,0-.247,0-.252.136-.323-.04.189a1.429,1.429,0,0,0,.079-.326c-.006-.014-.209.517-.1.229.027-.069.2-.341,0-.031-.234.378.172-.13-.144.156-.346.313.225-.117-.159.1l-.133.058c.164-.038.159-.042-.013-.015.008.028-.368,0,.03.012.136,0,.273,0,.41,0h6.493c.111,0,.224,0,.335,0,.14-.005.36.069-.117-.029.156.032.264.139-.146-.085.133.072.237.184-.146-.141.063.053.274.283.033.01-.222-.253-.061-.057-.015.029-.014-.025-.141-.493-.111-.24a.9.9,0,0,0,.04.153c.055.15-.083.386-.038-.324-.018.3.013.607.013.9q0,2.466.005,4.932c0,.163-.015.335,0,.5.013.185.149-.629.012-.212-.068.206.234-.477.118-.285s.368-.392.15-.185.193-.149.191-.148c-.255.171.157-.1.185-.073-.01-.009-.231.08-.247.058s.435-.019.076-.036c-.13-.006-.263,0-.393,0H44.73a2,2,0,0,0,0,4h6.917a4.492,4.492,0,0,0,2.42-.547,3.158,3.158,0,0,0,1.433-2.64c.063-1.7,0-3.419-.005-5.122a5.818,5.818,0,0,0-.415-2.671,3.394,3.394,0,0,0-2.95-1.84c-1.08-.061-2.178,0-3.259,0H45.123a4.121,4.121,0,0,0-2.329.544,3.659,3.659,0,0,0-1.568,2.924c-.119,1.772-.021,3.584-.017,5.359a4.784,4.784,0,0,0,0,.738c-.036-.22.089-.654.06-.449s-.066.4-.083.606a2.872,2.872,0,0,0,.122,1.034c.44,1.5,2,2.044,3.421,2.069a2,2,0,0,0,0-4Z"/><path class="i" d="M38.561,72.182c6.76,0,13.52-.022,20.28-.022,2.574,0,2.578-4,0-4-6.76,0-13.52.022-20.28.022-2.574,0-2.578,4,0,4Z"/><path class="i" d="M38.057,83.73c7.024-.207,14.054-.079,21.078.1,2.575.066,2.573-3.934,0-4-7.024-.18-14.054-.308-21.078-.1-2.569.076-2.58,4.076,0,4Z"/><path class="i" d="M84.279,55.2c.835,1.188,1.707,2.349,2.549,3.532a18.937,18.937,0,0,1,2.521,3.853c.739,1.881.545,3.942.567,5.921q.036,3.218.079,6.433c.055,4.308.112,8.617.145,12.926q.025,3.261.03,6.522c0,.995.029,2-.019,2.99A3.229,3.229,0,0,1,89.9,98.8c-.653,1.014-2.9.929-3.929.937-1.136.008-2.272,0-3.408,0a61.61,61.61,0,0,1-7.481-.075,6.42,6.42,0,0,1-1.9-.466c-.411-.194-.394-.276-.525-.767a22.445,22.445,0,0,1-.263-5.775q.021-6.56.114-13.117.045-3.666.093-7.331c.03-2.372-.084-4.792.1-7.157a10.281,10.281,0,0,1,2.367-5.381c1.139-1.549,2.259-3.13,3.262-4.771,1.346-2.2-2.113-4.214-3.454-2.019-2.034,3.328-5.111,6.287-5.913,10.217a36.958,36.958,0,0,0-.334,6.954q-.042,3.686-.092,7.369c-.062,4.834-.12,9.668-.138,14.5-.013,3.369-.831,8.935,2.857,10.771,2.725,1.357,6,1.045,8.955,1.045,3.027,0,6.349.344,9.311-.387a5.63,5.63,0,0,0,4.163-3.3c.709-1.828.492-4,.489-5.917-.007-4.838-.056-9.675-.115-14.512q-.049-4-.1-8.006a59.186,59.186,0,0,0-.227-8.027c-.61-4.031-3.724-7.186-5.993-10.416-1.469-2.091-4.938-.094-3.454,2.019Z"/><path class="i" d="M77.4,51.269a1.4,1.4,0,0,1-.324-.012c.039.036.4.1.133.015-.5-.154.248.167.018.023.436.272.343.288.232.171.344.362.285.4.2.247.244.435.186.482.135.288-.057-.214.058.609.051.349-.009-.345-.043.219-.054.309.025-.209.07-.417.086-.626.028-.387,0-.785,0-1.173q0-2.271.008-4.542c0-.082,0-.164,0-.247,0-.252.137-.323-.04.189a1.434,1.434,0,0,0,.08-.326c-.007-.014-.21.517-.1.229.027-.069.194-.341,0-.031-.234.378.172-.13-.144.156-.346.313.224-.117-.16.1l-.132.058c.163-.038.159-.042-.013-.015.007.028-.369,0,.03.012.136,0,.273,0,.409,0h6.494c.111,0,.223,0,.335,0,.14-.005.359.069-.117-.029.155.032.263.139-.146-.085.133.072.236.184-.147-.141.063.053.275.283.034.01-.223-.253-.061-.057-.016.029-.013-.025-.14-.493-.11-.24a.9.9,0,0,0,.039.153c.056.15-.082.386-.037-.324-.019.3.013.607.013.9q0,2.466,0,4.932c0,.163-.016.335,0,.5.014.185.15-.629.013-.212-.068.206.234-.477.118-.285s.368-.392.149-.185.193-.149.192-.148c-.255.171.157-.1.184-.073-.009-.009-.23.08-.246.058s.434-.019.076-.036c-.131-.006-.263,0-.393,0H77.4a2,2,0,0,0,0,4h6.918a4.486,4.486,0,0,0,2.419-.547,3.153,3.153,0,0,0,1.433-2.64c.064-1.7,0-3.419,0-5.122a5.819,5.819,0,0,0-.416-2.671,3.391,3.391,0,0,0-2.949-1.84c-1.08-.061-2.178,0-3.259,0H77.789a4.123,4.123,0,0,0-2.329.544,3.66,3.66,0,0,0-1.567,2.924c-.119,1.772-.021,3.584-.017,5.359a4.784,4.784,0,0,0,0,.738c-.037-.22.088-.654.059-.449s-.065.4-.082.606a2.871,2.871,0,0,0,.121,1.034c.44,1.5,2,2.044,3.421,2.069a2,2,0,0,0,0-4Z"/><path class="i" d="M71.228,72.182c6.76,0,13.52-.022,20.28-.022,2.574,0,2.578-4,0-4-6.76,0-13.52.022-20.28.022-2.574,0-2.579,4,0,4Z"/><path class="i" d="M77.572,63.071c2.314,0,4.628-.022,6.942-.022a2,2,0,0,0,0-4c-2.314,0-4.628.022-6.942.022a2,2,0,0,0,0,4Z"/><path class="i" d="M70.723,83.73c7.025-.207,14.055-.079,21.079.1,2.575.066,2.573-3.934,0-4-7.024-.18-14.054-.308-21.079-.1-2.568.076-2.579,4.076,0,4Z"/><path class="i" d="M178.488,137.111q0,18.481-.008,36.963,0,3.06,0,6.121c0,2.574,4,2.578,4,0q0-17.7.008-35.411,0-3.835,0-7.673c0-2.574-4-2.578-4,0Z"/><path class="i" d="M219.265,143.222c-10.59-.2-21.186-.148-31.777-.148-2.574,0-2.579,4,0,4,10.591,0,21.187-.047,31.777.148,2.575.048,2.575-3.952,0-4Z"/><path class="i" d="M197.932,152.549c-4,0-8-.139-12-.142a2,2,0,0,0,0,4c4,0,8,.139,12,.142a2,2,0,0,0,0-4Z"/><path class="i" d="M194.525,154.677c-2.593,0-5.185-.139-7.778-.141a2,2,0,0,0,0,4c2.593,0,5.185.138,7.778.141a2,2,0,0,0,0-4Z"/><path class="i" d="M140.3,153.438c-4,0-8-.139-12-.142a2,2,0,1,0,0,4c4,0,8,.139,12,.142a2,2,0,1,0,0-4Z"/><path class="i" d="M137.117,155.788c-2.593,0-5.185-.139-7.778-.141a2,2,0,0,0,0,4c2.593,0,5.185.138,7.778.141a2,2,0,0,0,0-4Z"/><path class="i" d="M180.9,139.111c12.736,0,25.472.109,38.208.163,2.128.009,4.256.022,6.385.022l-2-2c.014,10.62.33,21.244.566,31.86.084,3.75.172,7.5.174,11.251,0,2.574,4,2.579,4,0-.008-11.555-.448-23.117-.626-34.671-.043-2.813-.111-5.627-.114-8.44a2.031,2.031,0,0,0-2-2c-12.635,0-25.27-.11-37.9-.162-2.229-.009-4.459-.022-6.688-.023-2.574,0-2.578,4,0,4Z"/><path class="i" d="M118.488,137c0,12.333.079,24.667.121,37,.007,2.065.017,4.13.018,6.195,0,2.574,4,2.578,4,0,0-11.813-.086-23.627-.122-35.44q-.012-3.877-.017-7.755c0-2.574-4-2.578-4,0Z"/><path class="i" d="M158.821,143.222c-10.59-.181-21.187-.3-31.778-.148-2.572.038-2.579,4.038,0,4,10.591-.156,21.188-.033,31.778.148,2.575.044,2.575-3.956,0-4Z"/><path class="i" d="M121.5,138.727c-.286.162-1.371.237-.6.242.335,0,.671-.014,1.006-.018,1.067-.01,2.135-.009,3.2-.007,3.381.007,6.762.033,10.143.061q11.724.095,23.448.229c2.312.024,4.625.061,6.937.062l-2-2c.014,10.62.331,21.244.567,31.86.083,3.75.171,7.5.173,11.251,0,2.574,4,2.579,4,0-.008-11.555-.448-23.117-.626-34.671-.043-2.813-.11-5.627-.114-8.44a2.03,2.03,0,0,0-2-2c-13.4-.008-26.795-.319-40.193-.351-1.211,0-2.423-.006-3.634.007a4.878,4.878,0,0,0-2.331.321c-2.239,1.269-.226,4.726,2.019,3.454Z"/><path class="i" d="M167.784,102.852c5.787-.479,4.73-9.049,4.723-13.184q-.012-7.248-.022-14.5c0-2.657-.561-5.98-2.575-7.885-1.869-1.768-4.7,1.055-2.828,2.828,1.231,1.165,1.4,3.414,1.4,4.9q0,2.586.008,5.173l.021,13.44c0,.566.007,1.133,0,1.7a8.132,8.132,0,0,1-.275,2.178,5.03,5.03,0,0,1-.468,1.117c-.2.365-.462.273.012.234-2.547.211-2.57,4.213,0,4Z"/><path class="i" d="M148.85,67.921c-2.67,4.333-2,9.415-1.962,14.271.032,4.52.073,9.04.1,13.56a7.737,7.737,0,0,0,4.614,7.077c2.314,1.1,4.347-2.351,2.019-3.453a4.362,4.362,0,0,1-2.555-2.585c-.143-.461-.068-.211-.075-.6,0-.2,0-.393,0-.589q-.015-2.6-.036-5.207-.051-6.933-.1-13.866c0-.686-.016-1.373-.011-2.059A8.818,8.818,0,0,1,152.3,69.94c1.354-2.2-2.1-4.209-3.454-2.019Z"/><path class="i" d="M152.969,66.891c-.021.5-1.573.66-.862.739a5.025,5.025,0,0,0,.535,0h1.725l5.128,0,5.131,0h1.852a5.292,5.292,0,0,0,.617,0c.258-.032.095.12-.085-.046.422.388-.649-.371-.662-.635a2.042,2.042,0,0,0,2,2,2.02,2.02,0,0,0,2-2,3.173,3.173,0,0,0-2.205-3.2,6.781,6.781,0,0,0-1.665-.114l-4.093,0-9.275.006c-.389,0-.783-.019-1.172,0a3.076,3.076,0,0,0-2.969,3.261,2,2,0,1,0,4,0Z"/><path class="i" d="M150.419,79.023c6.259,0,12.518-.106,18.777-.109,2.574,0,2.578-4,0-4-6.259,0-12.518.105-18.777.109-2.574,0-2.579,4,0,4Z"/><path class="i" d="M155.167,94.806c3.094,0,6.187-.052,9.28-.053a2,2,0,0,0,0-4c-3.093,0-6.186.051-9.28.053a2,2,0,0,0,0,4Z"/><path class="i" d="M201.451,102.852c5.788-.479,4.73-9.049,4.723-13.184q-.011-7.248-.022-14.5c0-2.657-.56-5.98-2.574-7.885-1.87-1.768-4.7,1.055-2.828,2.828,1.23,1.165,1.4,3.414,1.4,4.9q0,2.586.007,5.173.011,6.72.022,13.44c0,.566.006,1.133,0,1.7a8.133,8.133,0,0,1-.276,2.178,4.981,4.981,0,0,1-.467,1.117c-.2.365-.462.273.011.234-2.547.211-2.569,4.213,0,4Z"/><path class="i" d="M182.517,67.921c-2.669,4.333-2,9.415-1.962,14.271.033,4.52.073,9.04.1,13.56a7.737,7.737,0,0,0,4.613,7.077c2.315,1.1,4.347-2.351,2.019-3.453a4.361,4.361,0,0,1-2.554-2.585c-.144-.461-.068-.211-.076-.6,0-.2,0-.393,0-.589q-.015-2.6-.036-5.207-.05-6.933-.1-13.866c0-.686-.016-1.373-.011-2.059a8.818,8.818,0,0,1,1.466-4.525c1.354-2.2-2.1-4.209-3.454-2.019Z"/><path class="i" d="M186.636,66.891c-.02.5-1.573.66-.862.739a5.025,5.025,0,0,0,.535,0h1.725l5.128,0,5.132,0h1.851a5.292,5.292,0,0,0,.617,0c.258-.032.1.12-.084-.046.421.388-.65-.371-.663-.635a2.043,2.043,0,0,0,2,2,2.019,2.019,0,0,0,2-2,3.173,3.173,0,0,0-2.2-3.2,6.786,6.786,0,0,0-1.666-.114l-4.092,0-9.275.006c-.389,0-.784-.019-1.172,0a3.076,3.076,0,0,0-2.97,3.261,2,2,0,0,0,4,0Z"/><path class="i" d="M184.086,79.023c6.259,0,12.518-.106,18.778-.109,2.573,0,2.578-4,0-4-6.26,0-12.519.105-18.778.109-2.574,0-2.578,4,0,4Z"/><path class="i" d="M188.835,94.806c3.093,0,6.186-.052,9.28-.053a2,2,0,0,0,0-4c-3.094,0-6.187.051-9.28.053a2,2,0,0,0,0,4Z"/><path class="i" d="M233.75,70.115c1.1,1.038,1.384,3.225,1.4,4.494.015,1.144,0,2.289,0,3.433l.018,11.772q0,2.454.007,4.908a14.092,14.092,0,0,1-.223,3.56,13.692,13.692,0,0,1-.645,1.484c-.151.4-.283.092.138.049-.015,0-.032,0-.047,0-.341.025-.69.007-1.031.01l-4.791.047-9.307.091,1.009.273a4.277,4.277,0,0,1-2.581-2.694c-.1-.388-.042-.111-.049-.518,0-.212,0-.425,0-.637q-.015-2.739-.037-5.48-.05-7.159-.1-14.32c0-.686-.014-1.371-.01-2.057a8.86,8.86,0,0,1,1.465-4.59c1.354-2.2-2.1-4.209-3.454-2.019a12.853,12.853,0,0,0-2.011,6.609c-.006,1,.01,1.99.016,2.984q.033,5.1.07,10.2.03,4.336.059,8.672a8.056,8.056,0,0,0,.469,3.018c.785,1.975,2.9,4.421,5.176,4.558,2.294.138,4.653-.046,6.949-.068,2.649-.026,5.309.017,7.956-.078,3.978-.143,4.976-4.642,4.981-7.9.005-2.711-.007-5.423-.011-8.134q-.009-5.537-.017-11.071c0-3.2-.083-7.07-2.576-9.428-1.87-1.768-4.7,1.055-2.828,2.828Z"/><path class="i" d="M219.636,66.891c-.02.5-1.573.66-.862.739a5.025,5.025,0,0,0,.535,0h1.725l5.128,0,5.132,0h1.851a5.292,5.292,0,0,0,.617,0c.258-.032.1.12-.084-.046.421.388-.65-.371-.663-.635a2.043,2.043,0,0,0,2,2,2.019,2.019,0,0,0,2-2,3.173,3.173,0,0,0-2.2-3.2,6.786,6.786,0,0,0-1.666-.114l-4.092,0-9.275.006c-.389,0-.784-.019-1.172,0a3.076,3.076,0,0,0-2.97,3.261,2,2,0,0,0,4,0Z"/><path class="i" d="M217.086,79.023c6.259,0,12.518-.106,18.778-.109,2.573,0,2.578-4,0-4-6.26,0-12.519.105-18.778.109-2.574,0-2.578,4,0,4Z"/><path class="i" d="M221.84,94.806c3.09,0,6.18-.052,9.27-.053a2,2,0,0,0,0-4c-3.09,0-6.18.051-9.27.053a2,2,0,0,0,0,4Z"/><path class="i" d="M227.026,162.472c-1.809-2.138-5.169-2.846-7.787-3.318a35.225,35.225,0,0,0-7.469-.714,9.954,9.954,0,0,0-8.228,4.487,12.938,12.938,0,0,0-2.118,9.053,10.019,10.019,0,0,0,1.66,4.962,8.511,8.511,0,0,0,5.094,3.431c2.512.527,3.585-3.328,1.063-3.857a4.872,4.872,0,0,1-2.772-1.683,6.066,6.066,0,0,1-.449-.692c-.046-.08-.3-.615-.2-.355s-.041-.128-.061-.209c-.132-.518-.249-1.042-.33-1.57a9.259,9.259,0,0,1,1.423-6.846c.111-.172.224-.342.342-.509.173-.243-.06.041.214-.268a5.687,5.687,0,0,1,1.042-.962,6.473,6.473,0,0,1,3.414-.985,30.865,30.865,0,0,1,5.8.486,26.429,26.429,0,0,1,4.07.963,6.68,6.68,0,0,1,1.462.621,5.277,5.277,0,0,1,.654.411c-.274-.21.267.289.346.383a2.016,2.016,0,0,0,2.828,0,2.043,2.043,0,0,0,0-2.829Z"/><path class="i" d="M213.339,170.118a.965.965,0,0,1,.111-.185l-.312.405a1.369,1.369,0,0,1,.165-.158l-.4.313a1.8,1.8,0,0,1,.327-.188l-.478.2a2.929,2.929,0,0,1,.736-.194l-.531.071a3.015,3.015,0,0,1,.723,0l-.532-.071c.615.1,1.166.425,1.773.555a5.625,5.625,0,0,0,2.879-.206,2.1,2.1,0,0,0,1.2-.919,2,2,0,0,0-2.259-2.938,6.642,6.642,0,0,1-1.013.244l.532-.072a2.765,2.765,0,0,1-.61,0l.531.071a10.525,10.525,0,0,1-1.513-.475,4.114,4.114,0,0,0-1.534-.2,5.166,5.166,0,0,0-1.919.485,2.79,2.79,0,0,0-1.322,1.248,2.168,2.168,0,0,0-.2,1.541,2.046,2.046,0,0,0,.919,1.2,2.02,2.02,0,0,0,1.542.2,1.952,1.952,0,0,0,1.195-.919Z"/><path class="i" d="M39.2,214.88c-.147,13.062-.133,26.128-.148,39.191q0,2.657-.005,5.313c0,2.574,4,2.578,4,0q0-17.337.082-34.675c.016-3.276.034-6.553.071-9.829.029-2.575-3.971-2.577-4,0Z"/><path class="i" d="M74.992,215.019c0-2.692.064-5.383.068-8.075a2.029,2.029,0,0,0-2-2c-10.558,0-21.116-.1-31.675-.1a2.03,2.03,0,0,0-2,2c-.016,2.707-.182,5.412-.189,8.12-.007,2.574,3.993,2.578,4,0,.007-2.708.173-5.413.189-8.12l-2,2c10.559,0,21.117.1,31.675.1l-2-2c0,2.692-.066,5.383-.068,8.075,0,2.574,4,2.578,4,0Z"/><path class="i" d="M75.06,260q0-18.562-.06-37.126-.006-3.927-.008-7.855c0-2.574-4-2.578-4,0q0,19.76.06,39.519,0,2.73.008,5.462c0,2.574,4,2.578,4,0Z"/><path class="i" d="M41.421,216.95c10.281,0,20.563-.1,30.844-.1,2.574,0,2.578-4,0-4-10.281,0-20.563.1-30.844.1-2.574,0-2.578,4,0,4Z"/><path class="i" d="M45.109,63.071c2.314,0,4.628-.022,6.942-.022a2,2,0,0,0,0-4c-2.314,0-4.628.022-6.942.022a2,2,0,0,0,0,4Z"/><path class="i" d="M121.806,215.019c0-2.692.064-5.383.069-8.075a2.029,2.029,0,0,0-2-2c-10.558,0-21.117-.1-31.675-.1a2.029,2.029,0,0,0-2,2c-.016,2.707-.182,5.412-.189,8.12-.008,2.574,3.992,2.578,4,0,.007-2.708.173-5.413.189-8.12l-2,2c10.558,0,21.117.1,31.675.1l-2-2c0,2.692-.066,5.383-.069,8.075,0,2.574,4,2.578,4,0Z"/><path class="i" d="M117.806,216.8q0,19.76.06,39.518,0,2.732.009,5.463l2-2-28.043-.162-3.974-.023,2,2q0-18.287.082-36.574.023-5.07.071-10.139c.029-2.575-3.971-2.577-4,0-.155,13.7-.134,27.4-.149,41.1q0,2.806,0,5.615a2.031,2.031,0,0,0,2,2l28.043.162,3.974.023a2.029,2.029,0,0,0,2-2c0-12.375-.043-24.751-.06-37.126q-.006-3.927-.009-7.855c0-2.574-4-2.578-4,0Z"/><path class="i" d="M88.236,216.95c10.281,0,20.563-.1,30.844-.1,2.574,0,2.578-4,0-4-10.281,0-20.563.1-30.844.1-2.574,0-2.578,4,0,4Z"/><path class="i" d="M95.784,225.9c5.877,0,11.754-.12,17.631-.122,2.574,0,2.578-4,0-4-5.877,0-11.754.119-17.631.122-2.574,0-2.578,4,0,4Z"/><path class="i" d="M95.819,227.819c4.7,0,9.409-.107,14.113-.109a2,2,0,0,0,0-4c-4.7,0-9.408.107-14.113.109a2,2,0,1,0,0,4Z"/><path class="i" d="M167.251,215.019c0-2.692.064-5.383.068-8.075a2.028,2.028,0,0,0-2-2c-10.558,0-21.116-.1-31.675-.1a2.03,2.03,0,0,0-2,2c-.016,2.707-.181,5.412-.189,8.12-.007,2.574,3.993,2.578,4,0,.008-2.708.173-5.413.189-8.12l-2,2c10.559,0,21.117.1,31.675.1l-2-2c0,2.692-.065,5.383-.068,8.075,0,2.574,4,2.578,4,0Z"/><path class="i" d="M163.251,215.019q0,20.428.06,40.858,0,2.857.008,5.716l2-2-28.042-.13-3.975-.019,2,2q0-18.26.082-36.52c.016-3.348.033-6.7.071-10.044.029-2.575-3.971-2.577-4,0-.154,13.673-.133,27.35-.148,41.024q0,2.77,0,5.54a2.03,2.03,0,0,0,2,2l28.043.13,3.974.019a2.028,2.028,0,0,0,2-2q0-19.229-.06-38.456,0-4.059-.008-8.118c0-2.574-4-2.578-4,0Z"/><path class="i" d="M175.719,254.667q0-16.23-.052-32.459-.006-3.494-.008-6.986c0-2.574-4-2.578-4,0q0,17.286.053,34.573,0,2.436.007,4.872c0,2.573,4,2.578,4,0Z"/><path class="i" d="M133.68,216.95c10.282,0,20.563-.1,30.845-.1,2.573,0,2.578-4,0-4-10.282,0-20.563.1-30.845.1-2.574,0-2.578,4,0,4Z"/><path class="i" d="M141.228,225.9c5.877,0,11.754-.12,17.631-.122,2.574,0,2.578-4,0-4-5.877,0-11.754.119-17.631.122-2.574,0-2.578,4,0,4Z"/><path class="i" d="M141.264,227.819c4.667,0,9.334-.107,14-.109a2,2,0,0,0,0-4c-4.667,0-9.334.107-14,.109a2,2,0,0,0,0,4Z"/><path class="i" d="M48.9,225.9c5.877,0,11.754-.12,17.631-.122,2.574,0,2.578-4,0-4-5.877,0-11.754.119-17.631.122-2.574,0-2.578,4,0,4Z"/><path class="i" d="M48.93,227.819c4.779,0,9.557-.107,14.335-.109a2,2,0,1,0,0-4c-4.778,0-9.556.107-14.335.109a2,2,0,1,0,0,4Z"/><path class="i" d="M50.43,242.363a14.531,14.531,0,0,0-2.068,11.585c.713,3.239,2.4,7.01,5.816,8.092a2,2,0,1,0,1.063-3.857c-.483-.154.216.128-.047,0-.123-.061-.241-.127-.359-.2-.006,0-.4-.292-.207-.135s-.153-.149-.188-.184c-.129-.124-.25-.257-.368-.391-.092-.105-.156-.195-.033-.032a8,8,0,0,1-.528-.812c-.169-.293-.322-.6-.465-.9-.076-.165-.145-.333-.272-.69a16.354,16.354,0,0,1-.6-2.164c-.036-.172-.069-.346-.1-.519-.008-.045-.087-.557-.059-.352.026.184-.038-.355-.037-.344-.016-.164-.029-.33-.039-.5a11.134,11.134,0,0,1,.019-1.826c.011-.1.011-.111,0-.031-.02.142-.007.07.038-.214.046-.226.09-.451.145-.675a12.7,12.7,0,0,1,.414-1.361,11.3,11.3,0,0,1,1.327-2.477,2,2,0,1,0-3.454-2.019Z"/><path class="i" d="M74.026,237.1c-4.16-2.118-8.765-1.975-13.222-.934a2.017,2.017,0,0,0-1.4,2.46,2.045,2.045,0,0,0,2.461,1.4c.559-.131,1.12-.248,1.686-.345.142-.024.283-.048.425-.07.038-.006.415-.062.275-.043s.224-.027.26-.031c.137-.016.273-.03.41-.043a18.266,18.266,0,0,1,3.12-.055c.217.016.434.042.65.063.3.03-.345-.069-.061-.006.1.022.2.033.3.051a12.6,12.6,0,0,1,1.23.285c.362.1.72.225,1.071.362.066.026.419.2.144.057-.254-.136.021.012.075.038.184.088.368.175.55.268a2,2,0,1,0,2.019-3.454Z"/><path class="i" d="M48.1,240.017c.1-.2.22-.388.339-.58s-.212.219.041-.056c.08-.086.156-.177.237-.263a5.451,5.451,0,0,1,1.11-.938,7.662,7.662,0,0,1,3.379-1.285,7.875,7.875,0,0,1,6.469,2.524L59.366,237q-.237.356-.49.7c.247-.335-.111.135-.133.161-.079.095-.159.189-.241.282a11.263,11.263,0,0,1-1.463,1.409c-.106.086-.1.083.007-.007l-.165.117c-.143.092-.282.19-.427.28a9.437,9.437,0,0,1-.911.5c-.124.056-.127.059-.007.01l-.2.077c-.2.072-.41.142-.619.2-.142.04-.285.077-.429.109.013,0-.6.111-.366.079a6.8,6.8,0,0,1-1.185.045,2.814,2.814,0,0,1-.806-.1,6.552,6.552,0,0,1-1.016-.312c.258.1-.134-.071-.178-.094q-.225-.112-.442-.242c-.17-.1-.333-.211-.5-.321-.1-.065-.224-.17-.058-.037a8.045,8.045,0,0,1-.757-.7q-.157-.162-.306-.332c-.031-.037-.33-.409-.173-.2s-.114-.166-.142-.206c-.09-.132-.174-.268-.258-.405a2,2,0,1,0-3.454,2.019,9.85,9.85,0,0,0,9.273,4.89c3.827-.406,6.809-2.771,8.9-5.893a2.032,2.032,0,0,0-.313-2.424,11.76,11.76,0,0,0-9.54-3.669c-3.173.352-6.83,2.077-8.318,5.077a2.051,2.051,0,0,0,.718,2.736A2.019,2.019,0,0,0,48.1,240.017Z"/><path class="i" d="M139.915,245.425a14.894,14.894,0,0,0-.168,9.729c.85,2.845,2.479,5.94,5.5,6.886a2,2,0,1,0,1.063-3.857c-.193-.061-.376-.225-.026.01-.092-.062-.2-.1-.3-.16s-.191-.137-.292-.188c.372.185.1.078-.04-.045-.186-.167-.347-.354-.519-.535-.339-.355.209.331-.072-.086-.074-.111-.153-.219-.226-.332a10.744,10.744,0,0,1-.83-1.565c.176.4-.048-.134-.063-.175-.052-.139-.1-.279-.15-.419q-.161-.466-.291-.943a18.355,18.355,0,0,1-.395-1.828c-.033-.191-.048-.361-.014-.069-.019-.169-.039-.337-.054-.507-.024-.272-.041-.545-.049-.818s-.009-.566,0-.848c0-.121.084-.862.027-.488a12.832,12.832,0,0,1,.749-2.7,2.015,2.015,0,0,0-1.4-2.46,2.045,2.045,0,0,0-2.46,1.4Z"/><path class="i" d="M165.1,237.1c-4.394-2.235-9.345-1.974-14.006-.735a2,2,0,1,0,1.063,3.857,20.248,20.248,0,0,1,6.632-.807c.237.013.474.03.711.054l.343.039c-.175-.021-.25-.039-.033,0,.422.078.841.159,1.255.271s.822.252,1.225.4c.049.018.36.147.1.039s.05.024.1.046c.2.093.394.187.589.286A2,2,0,1,0,165.1,237.1Z"/><path class="i" d="M67.025,141.347c-2.98,2.481-4.237,6.07-5.118,9.727s-1.75,7.031-4.186,9.992a11.872,11.872,0,0,1-7.747,4.358,34.881,34.881,0,0,0-6.162,1.4c-1.748.614-3.573,1.4-4.522,3.1-2.212,3.96,1.021,7.862,4.576,9.41,4,1.74,8.675,1.571,12.914,1.051A28.3,28.3,0,0,0,67.409,177.3a22.048,22.048,0,0,0,7.248-6.813,28.945,28.945,0,0,0,4.878-12.278,28.027,28.027,0,0,0,.326-7.532A21.543,21.543,0,0,0,77.256,143c-1.244-2.254-4.7-.238-3.454,2.019a17.827,17.827,0,0,1,2.062,5.751,21.431,21.431,0,0,1-.134,5.941,25.55,25.55,0,0,1-3.272,9.754,19.454,19.454,0,0,1-5.515,6.4,20.354,20.354,0,0,1-8.393,3.259,29,29,0,0,1-11.168.169A7.568,7.568,0,0,1,43.2,174.1c-.711-.85-.906-2,.08-2.7a13.938,13.938,0,0,1,4.943-1.671c1.645-.355,3.326-.45,4.95-.916a14.775,14.775,0,0,0,7.275-4.793A24.25,24.25,0,0,0,65.4,153.676c.849-3.521,1.537-7.071,4.456-9.5,1.98-1.649-.863-4.465-2.829-2.828Z"/><path class="i" d="M70.211,135.815c-.661-.055-1.322-.118-1.982-.194l-.434-.053c.5.059,0,0-.085-.016a4.622,4.622,0,0,1-.616-.131l.883.514-.007-.007.515.883c.148.6.068.592.081.273-.02.5-.048.334.012-.014.074-.436.16-.869.251-1.3.086-.412.177-.823.276-1.232.046-.186.092-.373.144-.557.035-.126.242-.629.04-.2l-.083.194q.351-.69-1.132.837c.018-.006.037-.008.055-.013.278-.081-.67.067-.323.044.228-.015.456-.038.684-.053.747-.049,1.5-.082,2.245-.114,1.866-.081,3.733-.145,5.6-.206l2.174-.069c.217-.007.436-.006.653-.021a1.679,1.679,0,0,0,.188-.006,1.793,1.793,0,0,1-1.484-.866c.138.225-.2-.554-.118-.262s-.013-.573-.03-.228c-.005.089.007.184.006.274,0,.214-.018.428-.039.641a2.6,2.6,0,0,1-.041.352c.143-.583.025-.184,0-.045-.043.245-.084.491-.131.735q-.124.645-.277,1.283c-.069.288-.395,1.158.024.206l.718-.717c.538-.316.448-.185.126-.12-.2.03-.179.027.076-.009l-.282.032c-.581.065-1.163.114-1.745.159a2,2,0,0,0,0,4,21.613,21.613,0,0,0,3.223-.361,2.2,2.2,0,0,0,1.6-1.663,23.13,23.13,0,0,0,.665-3.5c.189-1.509.043-3.3-1.671-3.833a7.912,7.912,0,0,0-2.41-.021c-2.473.078-4.946.157-7.417.271-.807.037-1.62.058-2.423.15a2.308,2.308,0,0,0-1.947,1.058,5.463,5.463,0,0,0-.514,1.511,18.5,18.5,0,0,0-.712,3.865c-.03,1.432,1.194,2,2.39,2.17,1.086.158,2.178.271,3.271.362a2.008,2.008,0,0,0,2-2,2.049,2.049,0,0,0-2-2Z"/><path class="i" d="M68.545,148.546c-1.128,3-1.339,6.231-2.458,9.236A16.6,16.6,0,0,1,61.9,164.63a2,2,0,0,0,2.828,2.828c2.441-2.149,3.9-5.184,5.046-8.167,1.213-3.147,1.443-6.531,2.628-9.682a2.017,2.017,0,0,0-1.4-2.46,2.045,2.045,0,0,0-2.461,1.4Z"/><path class="i" d="M69.854,144.175a13.744,13.744,0,0,0,1.128-1.312,5.9,5.9,0,0,0,.75-1.729,17.174,17.174,0,0,0,.479-3.319,2.011,2.011,0,0,0-.585-1.415,2,2,0,0,0-2.829,0,2.237,2.237,0,0,0-.586,1.415c-.038.488-.079.975-.144,1.46l.072-.531a7.934,7.934,0,0,1-.49,1.979l.2-.478a3.483,3.483,0,0,1-.413.724l.313-.405c-.222.279-.489.516-.725.783a2.116,2.116,0,0,0-.586,1.414,2.036,2.036,0,0,0,.586,1.414,2,2,0,0,0,2.829,0Z"/><path class="i" d="M74.226,137.191c-.214.875-.311,1.791-.438,2.682-.171,1.2-.342,2.411-.47,3.621a2,2,0,0,0,.586,1.414,2,2,0,0,0,2.828,0,2.289,2.289,0,0,0,.586-1.414c.069-.656.156-1.31.243-1.963l-.071.531a36.71,36.71,0,0,1,.593-3.808,2,2,0,0,0-3.857-1.063Z"/><path class="i" d="M141.729,244.7c-.094-.47,0,.227,0,.071,0-.11-.017-.223-.02-.334-.006-.264.014-.524.034-.786.03-.4-.092.443,0,.012.029-.134.051-.269.081-.4q.094-.42.23-.83c.054-.166.121-.328.177-.493q.081-.2-.057.123c.031-.071.063-.142.1-.212a9.939,9.939,0,0,1,.48-.914c.168-.282.353-.551.543-.818-.255.358.039-.042.1-.118.128-.15.262-.3.4-.437q.18-.184.37-.357c.07-.065.531-.442.16-.158a8.282,8.282,0,0,1,.828-.553c.293-.173.6-.322.9-.47.417-.2-.247.074.157-.062.191-.065.379-.137.571-.2a10.751,10.751,0,0,1,1.09-.28c.17-.034.34-.061.511-.09-.473.079.086,0,.151-.007a9.366,9.366,0,0,1,1.019-.029c.168,0,.335.022.5.027.233.026.221.02-.037-.015q.162.024.324.054l-1.468-1.928a14.753,14.753,0,0,1,.008,1.869c-.009.142-.02.284-.034.426-.009.1-.019.192-.03.287.041-.29.044-.322.011-.1-.058.344-.123.687-.21,1.025q-.123.483-.293.953c-.179.49.112-.193-.064.174-.069.143-.134.287-.208.427-.176.339-.383.65-.588.97q-.2.272.013-.006-.079.1-.162.2-.195.229-.406.444c-.124.126-.252.247-.383.365-.092.082-.185.162-.281.24q.24-.18-.039.022a8.374,8.374,0,0,1-.989.582c-.076.038-.154.074-.232.108.219-.092.223-.1.011-.014-.157.048-.311.106-.469.151q-.309.088-.626.15c-.132.026-.535.18-.091.023a3.4,3.4,0,0,1-1.068.044c-.173,0-.345-.021-.518-.029-.534-.026.289.068-.113-.009a9.892,9.892,0,0,1-1.788-.494,2.009,2.009,0,0,0-2.461,1.4,2.059,2.059,0,0,0,1.4,2.46,9.811,9.811,0,0,0,10.354-2.044,12.211,12.211,0,0,0,3.259-9.62,2.042,2.042,0,0,0-1.469-1.929,11.88,11.88,0,0,0-10.44,3.167c-2.237,2.291-3.749,5.8-3.1,9.03a2.013,2.013,0,0,0,2.461,1.4A2.049,2.049,0,0,0,141.729,244.7Z"/><path class="i" d="M148.669,231.927l1.986,6.054a2,2,0,0,0,3.857-1.063l-1.986-6.055a2,2,0,0,0-3.857,1.064Z"/><path class="i" d="M83.762,151.082a12.115,12.115,0,0,1-3.073,15.282,2.011,2.011,0,0,0,0,2.828,2.05,2.05,0,0,0,2.828,0c5.891-4.658,7.422-13.685,3.7-20.129-1.288-2.229-4.746-.217-3.454,2.019Z"/><path class="i" d="M55.655,145.793c-3.027,2.4-3.893,6.269-5.85,9.418a9.159,9.159,0,0,1-3.855,3.38A29.109,29.109,0,0,1,40.5,160.43c-2.484.667-1.43,4.527,1.063,3.857,4.267-1.145,8.5-2.579,11.193-6.3,2.178-3.011,2.866-7.093,5.73-9.362a2.013,2.013,0,0,0,0-2.829,2.05,2.05,0,0,0-2.829,0Z"/><path class="i" d="M72.265,172.439q.319.391.631.788c.052.066.1.133.156.2-.061-.075-.241-.315-.082-.1l.3.4q.624.834,1.21,1.695,1.154,1.693,2.161,3.483a2,2,0,0,0,3.454-2.019,51.466,51.466,0,0,0-5.006-7.271,2.006,2.006,0,0,0-1.414-.586,2.034,2.034,0,0,0-1.414.586,2.012,2.012,0,0,0-.586,1.414,2.284,2.284,0,0,0,.586,1.414Z"/><path class="i" d="M167.765,172.5a8.974,8.974,0,0,0-9.515-8.276l1.929,2.532c1.121-2.729-.06-5.879-2.16-7.789a8.831,8.831,0,0,0-8.411-1.9,9.685,9.685,0,0,0-6.545,5.609,10.209,10.209,0,0,0,.7,7.782c1.385,2.735,4.809,4.748,7.876,4.045,2.508-.575,1.447-4.433-1.063-3.858a1.759,1.759,0,0,1-1-.135,4.436,4.436,0,0,1-1.2-.654,4.157,4.157,0,0,1-1.4-2.039c-.6-2-.582-3.967,1.045-5.437,1.539-1.391,4.074-2.244,6.067-1.328,1.787.821,3.012,2.746,2.235,4.635a2.008,2.008,0,0,0,1.928,2.532c2.435-.19,5.407,1.5,5.515,4.276.1,2.566,4.1,2.578,4,0Z"/><path class="i" d="M152.589,167.162c-3.285,1.671-3.954,6.343-2.736,9.486,1.263,3.261,4.317,6.2,8.034,5.86a2.043,2.043,0,0,0,2-2,2.022,2.022,0,0,0-2-2c-.32.029-.633.008-.952.02-.247.01.347.085-.026,0-.152-.035-.3-.067-.451-.114-.059-.018-.455-.185-.19-.06s-.123-.071-.175-.1c-.135-.075-.268-.157-.4-.243-.046-.031-.387-.3-.182-.127s-.135-.126-.174-.161q-.189-.171-.37-.353c-.209-.21-.4-.437-.6-.652.277.293-.068-.1-.107-.157-.084-.124-.162-.252-.237-.381s-.149-.264-.217-.4c-.018-.036-.235-.568-.1-.194-.106-.289-.208-.578-.286-.877-.046-.178-.081-.356-.12-.536-.08-.376-.01.135-.015-.094-.006-.324-.023-.641-.014-.965.012-.363-.042.127.008-.1.032-.149.054-.3.088-.449q.06-.261.14-.515c.015-.049.169-.5.075-.244s.08-.165.1-.214c.075-.142.16-.275.241-.413.184-.314-.151.118.008-.025a3.447,3.447,0,0,0,.254-.272c.287-.324-.32.17.044-.049.123-.074.243-.146.37-.211a2.015,2.015,0,0,0,.718-2.737,2.049,2.049,0,0,0-2.737-.717Z"/><path class="i" d="M159.289,174.405a4.51,4.51,0,0,0-1.479.826,4.185,4.185,0,0,0-.769.872,5.035,5.035,0,0,0-.776,1.821,8.175,8.175,0,0,0,.014,3.756,2,2,0,1,0,3.857-1.064,4.756,4.756,0,0,1-.1-.506l.072.532a6.635,6.635,0,0,1,0-1.707l-.071.531a4.852,4.852,0,0,1,.308-1.192l-.2.478a3.2,3.2,0,0,1,.382-.671l-.313.405a2.386,2.386,0,0,1,.426-.426l-.405.313a2.222,2.222,0,0,1,.446-.256l-.478.2c.051-.02.1-.039.152-.056a2.124,2.124,0,0,0,1.195-.919,2,2,0,0,0-.718-2.737,2,2,0,0,0-1.541-.2Z"/><path class="i" d="M135.309,166.386a5.665,5.665,0,0,0,.179,6.027,8.518,8.518,0,0,0,4.578,3.442,2.014,2.014,0,0,0,2.461-1.4,2.048,2.048,0,0,0-1.4-2.461q-.31-.1-.612-.231l.478.2a6.95,6.95,0,0,1-1-.529c-.083-.053-.163-.11-.244-.165-.268-.184.316.259.134.108-.133-.111-.266-.222-.392-.342s-.219-.218-.322-.333A1.7,1.7,0,0,0,139,170.5l.2.262c-.036-.047-.072-.1-.106-.145a5.032,5.032,0,0,1-.514-.91l.2.478a4.637,4.637,0,0,1-.294-1.065l.071.532a4.041,4.041,0,0,1,0-.989l-.072.532a3.471,3.471,0,0,1,.2-.751l-.2.478a3.193,3.193,0,0,1,.283-.516,2.013,2.013,0,0,0-.717-2.736,2.05,2.05,0,0,0-2.737.717Z"/></svg>