<svg width="192" height="251" viewBox="0 0 192 251" fill="none" xmlns="http://www.w3.org/2000/svg">
<g filter="url(#filter0_d_663_5595)">
<circle cx="96" cy="151" r="71" fill="#0047FF"/>
</g>
<path d="M138.324 218L54.1553 229V146C54.1553 138.213 63.9076 120.636 78.6468 120.636H113.833C130.456 120.636 138.324 136.611 138.324 144.353V218Z" fill="#1EB1D2"/>
<path d="M116.472 79.8667C116.472 79.8667 114.311 82.7508 114.311 85.5794C114.311 88.7408 118.578 88.7408 118.634 85.5794C118.689 83.25 116.472 79.8667 116.472 79.8667Z" fill="white"/>
<path d="M108.104 122.906C108.104 130.338 102.064 136.494 94.6382 136.494H94.5274C87.1016 136.494 80.9503 130.338 80.9503 122.906V110.981H108.104V122.906Z" fill="#F6AE8D"/>
<path d="M94.472 128.453C75.1316 128.453 51.912 111.536 51.912 87.8537V16.5283H137.309V87.7982C137.254 111.536 113.757 128.453 94.472 128.453Z" fill="#F8C09D"/>
<path d="M61.9424 48.1973H41.8262V69.8278H61.9424V48.1973Z" fill="#C94B4B"/>
<path d="M51.6349 80.7542C58.3376 80.7542 63.7712 75.3161 63.7712 68.6078C63.7712 61.8995 58.3376 56.4614 51.6349 56.4614C44.9323 56.4614 39.4987 61.8995 39.4987 68.6078C39.4987 75.3161 44.9323 80.7542 51.6349 80.7542Z" fill="#F8C09D"/>
<path d="M49.1966 70.3272C49.1966 67.9423 51.1361 66.0011 53.5191 66.0011C54.1841 66.0011 54.7936 66.1675 55.3478 66.3893C54.572 65.1137 53.242 64.2817 51.6349 64.2817C49.252 64.2817 47.3124 66.2229 47.3124 68.6079C47.3124 70.3272 48.3099 71.8247 49.8061 72.4903C49.4182 71.8802 49.1966 71.1037 49.1966 70.3272Z" fill="#EF937E"/>
<path d="M58.8945 14.3098V14.5316H53.5745C47.0908 14.5316 41.8262 19.6897 41.8262 26.1234V26.0125V42.5959V56.2398H61.9424V50.0834C61.9424 45.9791 65.1012 42.7068 69.2574 42.7068H134.649C142.463 42.7068 148.836 36.2731 148.836 28.4529V0.000349952H73.192C65.3782 -0.055113 58.8945 6.48952 58.8945 14.3098Z" fill="#C94B4B"/>
<path d="M145.289 65.1138L136.755 59.0683V36.1621H145.289V65.1138Z" fill="#C94B4B"/>
<path d="M138.196 80.7542C144.898 80.7542 150.332 75.3161 150.332 68.6078C150.332 61.8995 144.898 56.4614 138.196 56.4614C131.493 56.4614 126.06 61.8995 126.06 68.6078C126.06 75.3161 131.493 80.7542 138.196 80.7542Z" fill="#F8C09D"/>
<path d="M142.186 70.3272C142.186 67.9423 140.246 66.0011 137.863 66.0011C137.198 66.0011 136.589 66.1675 136.035 66.3893C136.81 65.1137 138.14 64.2817 139.748 64.2817C142.13 64.2817 144.07 66.2229 144.07 68.6079C144.07 70.3272 143.072 71.8247 141.576 72.4903C141.964 71.8802 142.186 71.1037 142.186 70.3272Z" fill="#EF937E"/>
<path d="M83.2778 106.101C86.6028 101.054 92.1999 97.1714 99.1824 97.1714C107.495 97.1714 112.76 101.664 115.087 106.101" stroke="#EF937E" stroke-width="4.0717" stroke-miterlimit="10" stroke-linecap="round"/>
<path d="M95.8574 109.65C95.8574 109.65 96.7995 108.375 99.7366 108.319C101.787 108.319 103.782 109.429 103.782 109.429" stroke="#EF937E" stroke-width="4.0717" stroke-miterlimit="10" stroke-linecap="round"/>
<path d="M96.9103 80.5321V89.2398C96.9103 89.6281 97.409 89.9608 97.797 89.9608H102.951C104.336 89.9608 105.112 88.3524 104.225 87.2432L98.2403 80.0884C97.797 79.5893 96.9103 79.8666 96.9103 80.5321Z" fill="#EF937E"/>
<path d="M82.1141 75.929C83.6444 75.929 84.8849 73.7438 84.8849 71.0482C84.8849 68.3527 83.6444 66.1675 82.1141 66.1675C80.5838 66.1675 79.3433 68.3527 79.3433 71.0482C79.3433 73.7438 80.5838 75.929 82.1141 75.929Z" fill="#333333"/>
<path d="M116.971 75.929C118.501 75.929 119.742 73.7438 119.742 71.0482C119.742 68.3527 118.501 66.1675 116.971 66.1675C115.441 66.1675 114.2 68.3527 114.2 71.0482C114.2 73.7438 115.441 75.929 116.971 75.929Z" fill="#333333"/>
<path d="M77.9579 66.4446C77.9579 66.4446 79.5095 66.611 80.6179 66.2228C82.5575 65.5017 83.4996 64.5034 83.4996 64.5034" stroke="#333333" stroke-width="3.5942" stroke-miterlimit="10" stroke-linecap="round"/>
<path d="M120.185 66.9439C120.185 66.9439 118.246 66.6112 117.248 66.0011C116.085 65.3355 115.087 64.0044 115.087 64.0044" stroke="#333333" stroke-width="3.5942" stroke-miterlimit="10" stroke-linecap="round"/>
<defs>
<filter id="filter0_d_663_5595" x="0" y="59" width="192" height="192" filterUnits="userSpaceOnUse" color-interpolation-filters="sRGB">
<feFlood flood-opacity="0" result="BackgroundImageFix"/>
<feColorMatrix in="SourceAlpha" type="matrix" values="0 0 0 0 0 0 0 0 0 0 0 0 0 0 0 0 0 0 127 0" result="hardAlpha"/>
<feOffset dy="4"/>
<feGaussianBlur stdDeviation="12.5"/>
<feComposite in2="hardAlpha" operator="out"/>
<feColorMatrix type="matrix" values="0 0 0 0 0 0 0 0 0 0.278431 0 0 0 0 1 0 0 0 0.2 0"/>
<feBlend mode="normal" in2="BackgroundImageFix" result="effect1_dropShadow_663_5595"/>
<feBlend mode="normal" in="SourceGraphic" in2="effect1_dropShadow_663_5595" result="shape"/>
</filter>
</defs>
</svg>
